<mxfile host="app.diagrams.net" modified="2023-06-01T00:46:49.679Z" agent="Mozilla/5.0 (X11; Linux x86_64; rv:109.0) Gecko/20100101 Firefox/113.0" etag="80p6SosMoGeX2occDucU" version="21.3.6" type="dropbox">
  <diagram name="Page-1" id="LHwbDWPJeehArB8PUKJ-">
    <mxGraphModel dx="1434" dy="822" grid="1" gridSize="10" guides="1" tooltips="1" connect="1" arrows="1" fold="1" page="1" pageScale="1" pageWidth="850" pageHeight="1100" math="0" shadow="0">
      <root>
        <mxCell id="0" />
        <mxCell id="1" parent="0" />
        <mxCell id="0y0b6uF6-XNfLcG368yP-1" value="" style="triangle;whiteSpace=wrap;html=1;rotation=-90;" vertex="1" parent="1">
          <mxGeometry x="350" y="240" width="130" height="180" as="geometry" />
        </mxCell>
        <mxCell id="0y0b6uF6-XNfLcG368yP-2" value="&lt;font style=&quot;font-size: 14px;&quot;&gt;Cost&lt;/font&gt;" style="text;html=1;strokeColor=none;fillColor=none;align=center;verticalAlign=middle;whiteSpace=wrap;rounded=0;" vertex="1" parent="1">
          <mxGeometry x="260" y="390" width="60" height="30" as="geometry" />
        </mxCell>
        <mxCell id="0y0b6uF6-XNfLcG368yP-3" value="Time" style="text;html=1;strokeColor=none;fillColor=none;align=center;verticalAlign=middle;whiteSpace=wrap;rounded=0;" vertex="1" parent="1">
          <mxGeometry x="385" y="220" width="60" height="30" as="geometry" />
        </mxCell>
        <mxCell id="0y0b6uF6-XNfLcG368yP-4" value="Scope" style="text;html=1;strokeColor=none;fillColor=none;align=center;verticalAlign=middle;whiteSpace=wrap;rounded=0;" vertex="1" parent="1">
          <mxGeometry x="520" y="380" width="60" height="30" as="geometry" />
        </mxCell>
      </root>
    </mxGraphModel>
  </diagram>
</mxfile>
